# xmcd
#
# Track frame offsets:
#	150
#	18397
#	36057
#	55824
#	76230
#	89969
#	107831
#	126482
#	142170
#	163787
#	191678
#	212004
#	232063
#	247158
#
# Disc length: 3533 seconds
#
# Revision: 0
# Processed by: cddbd v1.5.2PL0 Copyright (c) Steve Scherf et al.
# Submitted via: EZCDAudioConverter 1.0.6.1
#
DISCID=d30dcb0e
DTITLE=ΔΙΑΦΟΡΟΙ ΚΑΛΙΤΕΧΝΕΣ - BEST OF BALLANDS
DYEAR=2013
DGENRE=BALLANDs
TTITLE0=MARVIN GAYE - SEXUAL HEALING
TTITLE1=BILLY OCEAN - SUDDENLY
TTITLE2=DEE C. LEE - SEE THE DAY
TTITLE3=TONI BRAXTON - UN-BREAK MY HEART
TTITLE4=DENIECE WILLIAMS - TOO MUCH TOO LITTLE TOO LATE
TTITLE5=EARTH, WIND and FIRE - AFTER THE LOVE HAS GONE
TTITLE6=GREGORY ABBOTT - SHAKE YOU DOWN
TTITLE7=HAROLD MELVIN and THE BLUE NOTES - IF YOU DONT KNOW ME BY NOW
TTITLE8=BILLY PAUL - ME AND MRS JONES
TTITLE9=HEATWAVE - ALWAYS AND FOREVER
TTITLE10=ODYSSEY - IF YOU'RE LOOKING FOR A WAY OUT
TTITLE11=THE MANHATTANS - KISS AND SAY GOODBYE
TTITLE12=CHAMPAIGN - HOW'BOUT US
TTITLE13=THE BANGLES - ETERNAL FLAME
EXTD=
EXTT0=
EXTT1=
EXTT2=
EXTT3=
EXTT4=
EXTT5=
EXTT6=
EXTT7=
EXTT8=
EXTT9=
EXTT10=
EXTT11=
EXTT12=
EXTT13=
PLAYORDER=
